<mxfile host="app.diagrams.net" modified="2023-05-16T13:43:32.268Z" agent="Mozilla/5.0 (Windows NT 10.0; Win64; x64) AppleWebKit/537.36 (KHTML, like Gecko) Chrome/113.0.0.0 Safari/537.36 Edg/113.0.1774.42" etag="oCcZYmyUETASzUYaLy_y" version="21.2.9" type="github">
  <diagram name="第 1 页" id="tdgV5l8s6aSlpnQfBHB1">
    <mxGraphModel dx="1236" dy="573" grid="1" gridSize="10" guides="1" tooltips="1" connect="1" arrows="1" fold="1" page="1" pageScale="1" pageWidth="827" pageHeight="1169" math="0" shadow="0">
      <root>
        <mxCell id="0" />
        <mxCell id="1" parent="0" />
        <mxCell id="-cPgSaneIuNT-kyaB3As-6" value="" style="edgeStyle=orthogonalEdgeStyle;rounded=0;orthogonalLoop=1;jettySize=auto;html=1;" edge="1" parent="1" source="-cPgSaneIuNT-kyaB3As-3" target="-cPgSaneIuNT-kyaB3As-5">
          <mxGeometry relative="1" as="geometry" />
        </mxCell>
        <mxCell id="-cPgSaneIuNT-kyaB3As-3" value="&lt;font style=&quot;font-size: 18px;&quot;&gt;Trans.&lt;/font&gt;" style="rounded=0;whiteSpace=wrap;html=1;" vertex="1" parent="1">
          <mxGeometry x="250" y="240" width="80" height="60" as="geometry" />
        </mxCell>
        <mxCell id="-cPgSaneIuNT-kyaB3As-8" value="" style="edgeStyle=orthogonalEdgeStyle;rounded=0;orthogonalLoop=1;jettySize=auto;html=1;" edge="1" parent="1" source="-cPgSaneIuNT-kyaB3As-5" target="-cPgSaneIuNT-kyaB3As-7">
          <mxGeometry relative="1" as="geometry" />
        </mxCell>
        <mxCell id="-cPgSaneIuNT-kyaB3As-5" value="&lt;font style=&quot;font-size: 18px;&quot;&gt;Feats.&lt;/font&gt;" style="rounded=0;whiteSpace=wrap;html=1;" vertex="1" parent="1">
          <mxGeometry x="430" y="240" width="80" height="60" as="geometry" />
        </mxCell>
        <mxCell id="-cPgSaneIuNT-kyaB3As-10" value="" style="edgeStyle=orthogonalEdgeStyle;rounded=0;orthogonalLoop=1;jettySize=auto;html=1;" edge="1" parent="1" source="-cPgSaneIuNT-kyaB3As-7" target="-cPgSaneIuNT-kyaB3As-9">
          <mxGeometry relative="1" as="geometry" />
        </mxCell>
        <mxCell id="-cPgSaneIuNT-kyaB3As-7" value="&lt;font style=&quot;font-size: 18px;&quot;&gt;Seq.&lt;/font&gt;" style="rounded=0;whiteSpace=wrap;html=1;" vertex="1" parent="1">
          <mxGeometry x="610" y="240" width="70" height="60" as="geometry" />
        </mxCell>
        <mxCell id="-cPgSaneIuNT-kyaB3As-14" value="" style="edgeStyle=orthogonalEdgeStyle;rounded=0;orthogonalLoop=1;jettySize=auto;html=1;entryX=0;entryY=0.5;entryDx=0;entryDy=0;" edge="1" parent="1" source="-cPgSaneIuNT-kyaB3As-9" target="-cPgSaneIuNT-kyaB3As-19">
          <mxGeometry relative="1" as="geometry">
            <mxPoint x="870" y="270" as="targetPoint" />
          </mxGeometry>
        </mxCell>
        <mxCell id="-cPgSaneIuNT-kyaB3As-9" value="&lt;font style=&quot;font-size: 18px;&quot;&gt;Pred.&lt;/font&gt;" style="rounded=0;whiteSpace=wrap;html=1;" vertex="1" parent="1">
          <mxGeometry x="780" y="240" width="70" height="60" as="geometry" />
        </mxCell>
        <mxCell id="-cPgSaneIuNT-kyaB3As-15" value="" style="edgeStyle=orthogonalEdgeStyle;rounded=0;orthogonalLoop=1;jettySize=auto;html=1;" edge="1" parent="1" source="-cPgSaneIuNT-kyaB3As-11" target="-cPgSaneIuNT-kyaB3As-3">
          <mxGeometry relative="1" as="geometry" />
        </mxCell>
        <mxCell id="-cPgSaneIuNT-kyaB3As-11" value="&lt;font style=&quot;font-size: 18px;&quot;&gt;&amp;nbsp;X&lt;/font&gt;" style="rounded=1;whiteSpace=wrap;html=1;" vertex="1" parent="1">
          <mxGeometry x="140" y="240" width="60" height="60" as="geometry" />
        </mxCell>
        <mxCell id="-cPgSaneIuNT-kyaB3As-17" value="&lt;font style=&quot;font-size: 18px;&quot;&gt;Input Image&lt;/font&gt;" style="text;html=1;strokeColor=none;fillColor=none;align=center;verticalAlign=middle;whiteSpace=wrap;rounded=0;" vertex="1" parent="1">
          <mxGeometry x="130" y="200" width="100" height="30" as="geometry" />
        </mxCell>
        <mxCell id="-cPgSaneIuNT-kyaB3As-19" value="&lt;font style=&quot;font-size: 18px;&quot;&gt;Y&lt;/font&gt;" style="rounded=1;whiteSpace=wrap;html=1;" vertex="1" parent="1">
          <mxGeometry x="890" y="240" width="60" height="60" as="geometry" />
        </mxCell>
        <mxCell id="-cPgSaneIuNT-kyaB3As-20" value="&lt;font style=&quot;font-size: 18px;&quot;&gt;Normalized Image&lt;/font&gt;" style="text;html=1;strokeColor=none;fillColor=none;align=center;verticalAlign=middle;whiteSpace=wrap;rounded=0;" vertex="1" parent="1">
          <mxGeometry x="320" y="205" width="120" height="60" as="geometry" />
        </mxCell>
        <mxCell id="-cPgSaneIuNT-kyaB3As-22" value="&lt;span style=&quot;font-size: 18px;&quot;&gt;Visual Features&lt;/span&gt;" style="text;html=1;strokeColor=none;fillColor=none;align=center;verticalAlign=middle;whiteSpace=wrap;rounded=0;" vertex="1" parent="1">
          <mxGeometry x="510" y="200" width="100" height="70" as="geometry" />
        </mxCell>
        <mxCell id="-cPgSaneIuNT-kyaB3As-23" value="&lt;span style=&quot;font-size: 18px;&quot;&gt;Contextual Features&lt;/span&gt;" style="text;html=1;strokeColor=none;fillColor=none;align=center;verticalAlign=middle;whiteSpace=wrap;rounded=0;" vertex="1" parent="1">
          <mxGeometry x="660" y="200" width="130" height="70" as="geometry" />
        </mxCell>
        <mxCell id="-cPgSaneIuNT-kyaB3As-24" value="&lt;font style=&quot;font-size: 18px;&quot;&gt;Predictions&lt;/font&gt;" style="text;html=1;strokeColor=none;fillColor=none;align=center;verticalAlign=middle;whiteSpace=wrap;rounded=0;" vertex="1" parent="1">
          <mxGeometry x="870" y="200" width="100" height="30" as="geometry" />
        </mxCell>
      </root>
    </mxGraphModel>
  </diagram>
</mxfile>
